<svg width="153" height="52" viewBox="0 0 153 52" fill="none" xmlns="http://www.w3.org/2000/svg">
<rect y="5.51678" width="40" height="40.1354" rx="11.1782" fill="#3692FF"/>
<path d="M19.3139 16.6914C19.8132 18.4169 18.493 20.3182 16.9797 20.7591C15.4663 21.1999 13.3989 20.2856 12.8996 18.5601C12.4003 16.8346 13.4485 14.4438 14.9618 14.0029C16.9797 13.4151 18.8146 14.9659 19.3139 16.6914Z" fill="#222327"/>
<path d="M20.1461 16.6914C19.6468 18.4169 20.967 20.3182 22.4803 20.7591C23.9936 21.1999 26.0611 20.2856 26.5604 18.5601C27.0597 16.8346 26.0115 14.4438 24.4982 14.0029C22.4803 13.4151 20.6454 14.9659 20.1461 16.6914Z" fill="#222327"/>
<path d="M29.5172 29.2965C29.5172 33.6854 25.2138 35.3167 19.3437 35.3167C13.4736 35.3167 9.26758 33.6854 9.26758 29.2965C9.26758 24.1914 13.4736 19.6642 19.3437 19.6642C25.2138 19.6642 29.5172 23.8061 29.5172 29.2965Z" fill="#F3D6DD"/>
<path d="M17.4003 28.4301C17.4003 29.8674 16.4777 31.4443 15.1884 31.4443C13.8991 31.4443 11.8164 30.2731 11.8164 28.1259C11.8164 26.1089 14.0664 25.3915 16.3913 25.7599C17.8163 25.9856 17.4003 26.9927 17.4003 28.4301Z" fill="#222327"/>
<path d="M16.3221 28.285C16.3221 28.5006 16.2573 28.6754 15.933 28.6754C15.6088 28.6754 15.5439 28.5006 15.5439 28.285C15.5439 28.0694 15.6736 27.8946 15.933 27.8946C16.1924 27.8946 16.3221 28.0694 16.3221 28.285Z" fill="white"/>
<path d="M21.3223 28.4301C21.3223 29.8674 22.2449 31.4443 23.5342 31.4443C24.8235 31.4443 26.9062 30.2731 26.9062 28.1259C26.9062 26.1089 24.6563 25.3915 22.3313 25.7599C20.9064 25.9856 21.3223 26.9927 21.3223 28.4301Z" fill="#222327"/>
<path d="M22.4015 28.2851C22.4015 28.5007 22.4664 28.6755 22.7906 28.6755C23.1148 28.6755 23.1797 28.5007 23.1797 28.2851C23.1797 28.0695 23.05 27.8947 22.7906 27.8947C22.5312 27.8947 22.4015 28.0695 22.4015 28.2851Z" fill="white"/>
<path d="M17.8754 30.5097C17.7969 30.3952 17.6404 30.3659 17.5258 30.4444C17.4112 30.5229 17.382 30.6795 17.4605 30.794L17.8754 30.5097ZM19.3179 30.2004L19.5559 30.1189C19.521 30.0172 19.4254 29.9489 19.3179 29.9489C19.2104 29.9489 19.1148 30.0172 19.08 30.1189L19.3179 30.2004ZM21.1754 30.794C21.2539 30.6795 21.2246 30.5229 21.1101 30.4444C20.9955 30.3659 20.8389 30.3952 20.7604 30.5097L21.1754 30.794ZM17.4605 30.794C17.53 30.8955 17.6562 31.0314 17.8254 31.1437C17.9962 31.257 18.2244 31.3549 18.493 31.3549V30.8519C18.349 30.8519 18.2163 30.7993 18.1035 30.7245C17.9891 30.6486 17.9091 30.5588 17.8754 30.5097L17.4605 30.794ZM18.493 31.3549C18.8235 31.3549 19.0693 31.1191 19.2223 30.9161C19.3838 30.7018 19.498 30.4508 19.5559 30.2819L19.08 30.1189C19.0347 30.251 18.9427 30.4515 18.8206 30.6134C18.69 30.7867 18.5749 30.8519 18.493 30.8519V31.3549ZM19.08 30.2819C19.1379 30.4508 19.252 30.7018 19.4136 30.9161C19.5666 31.1191 19.8124 31.3549 20.1429 31.3549V30.8519C20.061 30.8519 19.9459 30.7867 19.8153 30.6134C19.6932 30.4515 19.6011 30.251 19.5559 30.1189L19.08 30.2819ZM20.1429 31.3549C20.4115 31.3549 20.6397 31.257 20.8105 31.1437C20.9797 31.0314 21.1059 30.8955 21.1754 30.794L20.7604 30.5097C20.7268 30.5588 20.6467 30.6486 20.5324 30.7245C20.4196 30.7993 20.2868 30.8519 20.1429 30.8519V31.3549Z" fill="#222327"/>
<path d="M20.6913 29.968C20.6913 30.1772 19.7493 30.4435 19.4322 30.5272C19.3645 30.5451 19.2946 30.5451 19.2268 30.5272C18.9098 30.4435 17.9678 30.1772 17.9678 29.968C17.9678 29.7164 18.7207 29.4474 19.3295 29.4474C19.9384 29.4474 20.6913 29.7164 20.6913 29.968Z" fill="#222327"/>
<path d="M19.1655 23.2762C15.3813 23.2762 13.9906 21.9468 13.7656 21.1692L15.5656 19.2126L19.4655 18.5353L24.8654 21.1692C24.5404 21.7963 22.9539 23.2762 19.1655 23.2762Z" fill="#222327"/>
<path fill-rule="evenodd" clip-rule="evenodd" d="M19.6898 37.4991C27.5098 37.4991 33.2427 35.2951 33.2427 29.3659C33.2427 21.9484 27.5098 16.3527 19.6898 16.3527C11.8698 16.3527 6.2666 22.4689 6.2666 29.3659C6.2666 35.2951 11.8698 37.4991 19.6898 37.4991ZM19.3823 35.222C25.1345 35.222 29.3515 33.608 29.3515 29.266C29.3515 23.8341 25.1345 19.7364 19.3823 19.7364C13.6301 19.7364 9.50854 24.2153 9.50854 29.266C9.50854 33.608 13.6301 35.222 19.3823 35.222Z" fill="white"/>
<path d="M70.8926 22.6522H73.9685V26.2408H70.8926V33.5206H66.2786V29.0092C62.9976 29.6757 59.7422 30.0345 55.0001 30.0345H49.6171V26.5228H51.6678V19.243H50.1298V15.7825H64.2792V19.243H62.7413V26.1383C63.9973 25.9845 65.1764 25.8051 66.2786 25.6V15.5262H70.8926V22.6522ZM52.1548 39.6213V32.0083H56.8713V36.0583H71.4052V39.6213H52.1548ZM56.2817 26.5228C56.9225 26.4972 57.5377 26.4972 58.1273 26.4715V19.243H56.2817V26.5228ZM99.6016 24.4465V28.0351H96.5256V39.6213H91.9117V35.5969C88.6306 36.5453 85.3752 37.0836 80.6331 37.0836H76.0192V16.2952H89.1433V19.7557H80.6331V33.5719C85.324 33.5719 88.6563 33.1105 91.9117 32.1877V15.5262H96.5256V24.4465H99.6016ZM125.235 24.4465V28.0351H122.159V39.6213H117.545V15.5262H122.159V24.4465H125.235ZM101.652 37.0836V16.2952H115.058V37.0836H101.652ZM106.266 33.5719H110.496V19.8069H106.266V33.5719ZM144.844 15.5262H149.33V29.4193H144.844V15.5262ZM125.747 26.6766C128.746 26.0614 131.002 25.113 132.258 23.9082L127.285 24.2158V20.8835H133.335V19.243H127.798V15.7825H137.821V20.3965H139.282V15.6544H143.639V29.4193H139.282V23.9851H137.154C135.795 26.6253 132.386 28.8041 127.208 30.1114L125.747 26.6766ZM128.541 35.9558C134.873 35.7251 136.718 34.4178 136.718 32.1877V30.2396H141.332V32.5978C141.332 33.213 141.255 33.8026 141.102 34.3409C144.075 34.5459 147.023 34.9561 149.33 35.4944L148.099 39.6213C145.459 38.6985 141.768 37.8013 138.795 37.3143C136.667 38.7498 133.258 39.4419 129.028 39.6213L128.541 35.9558Z" fill="#3692FF"/>
</svg>
